<svg version="1.1" viewBox="0.0 0.0 960.0 720.0" fill="none" stroke="none" stroke-linecap="square" stroke-miterlimit="10" xmlns:xlink="http://www.w3.org/1999/xlink" xmlns="http://www.w3.org/2000/svg"><clipPath id="p.0"><path d="m0 0l960.0 0l0 720.0l-960.0 0l0 -720.0z" clip-rule="nonzero"/></clipPath><g clip-path="url(#p.0)"><path fill="#000000" fill-opacity="0.0" d="m0 0l960.0 0l0 720.0l-960.0 0z" fill-rule="evenodd"/><path fill="#b4a7d6" d="m1.2152231 0l958.77167 0l0 329.13385l-958.77167 0z" fill-rule="evenodd"/><path fill="#d9d9d9" d="m1.2152231 250.37534l960.0 0l0 469.6378l-960.0 0z" fill-rule="evenodd"/><path fill="#d9d9d9" d="m-4.249344 250.38846l352.11023 -89.85828l352.11023 89.85828z" fill-rule="evenodd"/><path fill="#d9d9d9" d="m193.04987 277.0866l350.28497 -93.480316l349.3056 93.480316z" fill-rule="evenodd"/><path fill="#674ea7" d="m544.55383 250.37534l207.71649 -130.51968l207.71655 130.51968z" fill-rule="evenodd"/><path fill="#351c75" d="m0 329.1181l439.4128 -145.51181l131.07535 145.51181z" fill-rule="evenodd"/><path fill="#20124d" d="m418.88452 329.12335l199.729 -124.88188l227.67255 124.88188z" fill-rule="evenodd"/><path fill="#20124d" d="m579.77954 250.37534l380.22046 0l0 338.61417l-380.22046 0z" fill-rule="evenodd"/><path fill="#20124d" d="m760.69293 550.01575l199.30707 0l0 169.95276l-199.30707 0z" fill-rule="evenodd"/><path fill="#ffffff" d="m0 720.0026l0 -720.0l760.69293 720.0z" fill-rule="evenodd"/><path fill="#674ea7" d="m515.40155 760.916l-515.40155 -549.4645l0 -37.81111l515.40155 549.4644z" fill-rule="evenodd"/><path fill="#351c75" d="m515.40155 850.5381l-515.40155 -549.4645l0 -37.811096l515.40155 549.4645z" fill-rule="evenodd"/><path fill="#20124d" d="m605.95013 326.62204l0 101.98425l-109.63779 -101.98425z" fill-rule="evenodd"/><path fill="#20124d" d="m763.81104 564.1286l0 54.173218l-58.236206 -54.173218z" fill-rule="evenodd"/><path fill="#ffffff" d="m852.55383 341.77954l108.66138 0l0 36.440918l-108.66138 0z" fill-rule="evenodd"/><path fill="#ffffff" d="m747.32544 415.50394l213.88977 0l0 20.0l-213.88977 0z" fill-rule="evenodd"/></g></svg>